<?xml version="1.0" encoding="utf-8"?>
<!-- Generator: Adobe Illustrator 19.2.1, SVG Export Plug-In . SVG Version: 6.00 Build 0)  -->
<!DOCTYPE svg PUBLIC "-//W3C//DTD SVG 1.1//EN" "http://www.w3.org/Graphics/SVG/1.1/DTD/svg11.dtd">
<svg version="1.1" id="Layer_1" xmlns="http://www.w3.org/2000/svg" xmlns:xlink="http://www.w3.org/1999/xlink" x="0px" y="0px"
	 viewBox="0 0 51.7 37.3" style="enable-background:new 0 0 51.7 37.3;" xml:space="preserve">
<style type="text/css">
	.st0{fill:#00ADEF;}
</style>
<path id="upload" class="st0" d="M43.3,17.7c0.1-0.6,0.2-1.3,0.2-1.9C43.4,8.5,37.4,2.6,30.1,2.7c-5,0.1-9.6,3-11.8,7.5
	c-3.1-1.9-7.2-0.9-9.1,2.2c-0.6,1-1,2.2-1,3.4c0,0.6,0.1,1.3,0.3,1.9C3.9,19.1,1.3,24,2.8,28.6c1.1,3.7,4.5,6.1,8.4,6.1H23v-9.4
	l-1.8,1.8c-0.6,0.6-1.5,0.6-2.1,0l-1.6-1.5c-0.6-0.6-0.6-1.5,0-2l0,0l7.3-7.3c0.6-0.6,1.5-0.6,2.1,0l7.3,7.3c0.6,0.6,0.6,1.5,0,2
	l0,0l-1.6,1.5c-0.6,0.6-1.5,0.6-2.1,0l-1.8-1.8v9.4h11.8c4.8,0,8.8-3.8,8.8-8.6C49.3,22.3,46.9,18.9,43.3,17.7z"/>
</svg>
